<?xml version="1.0" encoding="utf-8"?>
<svg viewBox="-182.526 -151.954 819 697" xmlns="http://www.w3.org/2000/svg">
  <polygon points="632.145 673.537 620.504 677.384 600.124 634.316 617.305 628.638 632.145 673.537" fill="#ffb8b8" transform="matrix(1, 0, 0, 1, -182.526291, -151.953964)"/>
  <path d="M803.70539,776.55634h23.64387a0,0,0,0,1,0,0v14.88687a0,0,0,0,1,0,0H788.81854a0,0,0,0,1,0,0v0A14.88686,14.88686,0,0,1,803.70539,776.55634Z" transform="matrix(0.949479, -0.31383, 0.31383, 0.949479, -578.243958, 39.755424)" fill="#2f2e41"/>
  <polygon points="555.351 684.229 543.091 684.228 537.259 636.94 555.353 636.941 555.351 684.229" fill="#ffb8b8" transform="matrix(1, 0, 0, 1, -182.526291, -151.953964)"/>
  <path d="M534.33389,680.72546h23.64387a0,0,0,0,1,0,0v14.88687a0,0,0,0,1,0,0H519.447a0,0,0,0,1,0,0v0A14.88686,14.88686,0,0,1,534.33389,680.72546Z" fill="#2f2e41" transform="matrix(1, 0, 0, 1, -182.526291, -151.953964)"/>
  <path d="M734.51909,610.1897l-.62472,2.76662c-8.44725,37.40925-11.45573,91.84115-8.93257,130.10917l1.94909,29.56113a4,4,0,0,0,3.99133,3.73684h14.698a4,4,0,0,0,3.97261-3.53264l11.40761-96.96472a4,4,0,0,1,7.78693-.73716l29.56536,87.62362a4,4,0,0,0,3.5568,2.78718l22.45121,1.44846a4,4,0,0,0,4.07477-5.187l-13.51432-37.15864c-10.44217-33.34756-16.05519-84.0186-16.66815-118.95745v0a4,4,0,0,0-4.37862-3.91182l-55.81285,5.31551A4,4,0,0,0,734.51909,610.1897Z" transform="matrix(1, 0, 0, 1, -373.026306, -253.453949)" fill="#2f2e41"/>
  <circle cx="576.70058" cy="328.79653" r="24.56103" fill="#a0616a" transform="matrix(1, 0, 0, 1, -182.526291, -151.953964)"/>
  <path d="M751.07793,618.23651h0a144.91069,144.91069,0,0,1-14.645-.77247,6.02078,6.02078,0,0,1-5.34766-6.49511l8.374-80.90625c2.01929-22.88477,5.13916-44.97559,20.92457-63.68457a6.01764,6.01764,0,0,1,4.33154-2.127l.59326-.02246c6.22681-.25976,9.09619-.0332,9.90356.77539l4.34278,4.2793c26.48388,19.58594,27.5841,143.66193,21.05919,141.21662-1.2622-.4707-16.33458.00213-17.38366.71795C774.7227,617.01678,761.05009,618.23553,751.07793,618.23651Z" transform="matrix(1, 0, 0, 1, -373.026306, -253.453949)" fill="#b542b9"/>
  <path d="M654.71246,573.328a10.05574,10.05574,0,0,1,14.90963-3.93173L698.68582,548.605l.70506,18.55631-27.70751,16.8989A10.11027,10.11027,0,0,1,654.71246,573.328Z" transform="matrix(1, 0, 0, 1, -373.026306, -253.453949)" fill="#a0616a"/>
  <path d="M683.57709,578.81387l-9.844-17.32882L763.4,496.83067a18.14229,18.14229,0,1,1,18.95437,30.82559Z" transform="matrix(1, 0, 0, 1, -373.026306, -253.453949)" fill="#b542b9"/>
  <path d="M778.2357,451.06222a4.8526,4.8526,0,0,0,6.3459.4066c5.78855-4.29092,10.87038-9.632,13.87779-16.14676,3.44606-7.465,3.83051-16.62536-.32438-23.72027-3.51234-5.9977-9.71445-9.868-15.89583-13.046a28.2712,28.2712,0,0,0-7.67384-2.95768,10.93664,10.93664,0,0,0-7.95156,1.283,6.8677,6.8677,0,0,0-3.10059,7.09084,25.847,25.847,0,0,0-11.03188-7.40551,14.267,14.267,0,0,0-8.42531-.61078c-3.92257,1.1126-6.78626,4.59777-8.35256,8.36222a16.72443,16.72443,0,0,0-1.26243,9.1248,11.14647,11.14647,0,0,0,4.87061,7.63469c3.24312,2.00656,7.38055,1.86189,11.10507,1.0421s7.32987-2.24558,11.12646-2.60615,8.02437.58609,10.33493,3.62013c1.62716,2.13665,2.045,4.92842,2.41021,7.58914l1.89978,13.83909a16.88058,16.88058,0,0,0,1.5099,5.78251A3.33361,3.33361,0,0,0,778.2357,451.06222Z" transform="matrix(1, 0, 0, 1, -373.026306, -253.453949)" fill="#2f2e41"/>
  <path d="M831.22861,623.15271a10.0558,10.0558,0,0,1-1.10132-15.38l-15.04665-32.41262,18.36568,2.74513,11.4729,30.35871a10.11028,10.11028,0,0,1-13.69061,14.68873Z" transform="matrix(1, 0, 0, 1, -373.026306, -253.453949)" fill="#a0616a"/>
  <path d="M841.29027,588.72168l-17.32882,9.844-64.65438-89.667a18.14229,18.14229,0,1,1,30.82559-18.95437Z" transform="matrix(1, 0, 0, 1, -373.026306, -253.453949)" fill="#b542b9"/>
  <path id="af36087b-ebb7-4586-9a2a-879d85f262d7" data-name="Path 22" d="M683.45388,266.783h-3.82147V162.0937A60.59372,60.59372,0,0,0,619.03872,101.5H397.23287a60.5937,60.5937,0,0,0-60.5937,60.5937V736.43714a60.59371,60.59371,0,0,0,60.5937,60.59369H619.03869a60.5937,60.5937,0,0,0,60.59275-60.59369V341.30285h3.82147Z" transform="matrix(1, 0, 0, 1, -373.026306, -253.453949)" fill="#e6e6e6"/>
  <path id="bd8e308f-d5b9-490f-b905-e174e794b745" data-name="Path 23" d="M621.48363,117.2585H592.533a21.49818,21.49818,0,0,1-19.90685,29.61744h-127.07a21.49819,21.49819,0,0,1-19.905-29.61744H398.60943a45.25079,45.25079,0,0,0-45.25079,45.25078V736.01875a45.25081,45.25081,0,0,0,45.25079,45.25077h222.8742a45.2508,45.2508,0,0,0,45.25078-45.25077h0V162.50836A45.25078,45.25078,0,0,0,621.4836,117.2585Z" transform="matrix(1, 0, 0, 1, -373.026306, -253.453949)" fill="#fff"/>
  <circle cx="229.88414" cy="447" r="11" fill="#3f3d56" transform="matrix(1, 0, 0, 1, -182.526291, -151.953964)"/>
  <path d="M602.70891,556.5h-140a8,8,0,1,1,0-16h140a8,8,0,0,1,0,16Z" transform="matrix(1, 0, 0, 1, -373.026306, -253.453949)" fill="#ccc"/>
  <path d="M559.28768,556.59646H462.13013a8.09646,8.09646,0,1,1,0-16.19292h97.15755a8.09646,8.09646,0,0,1,0,16.19292Z" transform="matrix(1, 0, 0, 1, -373.026306, -253.453949)" fill="#b542b9"/>
  <circle cx="229.88414" cy="495" r="11" fill="#3f3d56" transform="matrix(1, 0, 0, 1, -182.526291, -151.953964)"/>
  <path d="M602.70891,604.5h-140a8,8,0,1,1,0-16h140a8,8,0,0,1,0,16Z" transform="matrix(1, 0, 0, 1, -373.026306, -253.453949)" fill="#ccc"/>
  <circle cx="229.88414" cy="543" r="11" fill="#3f3d56" transform="matrix(1, 0, 0, 1, -182.526291, -151.953964)"/>
  <path d="M602.70891,652.5h-140a8,8,0,1,1,0-16h140a8,8,0,0,1,0,16Z" transform="matrix(1, 0, 0, 1, -373.026306, -253.453949)" fill="#ccc"/>
  <path d="M527.28768,604.59646H462.13013a8.09646,8.09646,0,1,1,0-16.19292h65.15755a8.09646,8.09646,0,0,1,0,16.19292Z" transform="matrix(1, 0, 0, 1, -373.026306, -253.453949)" fill="#b542b9"/>
  <path d="M585.28768,652.59646H462.13013a8.09646,8.09646,0,1,1,0-16.19292H585.28768a8.09646,8.09646,0,0,1,0,16.19292Z" transform="matrix(1, 0, 0, 1, -373.026306, -253.453949)" fill="#b542b9"/>
  <path d="M1008.5,798.5h-817a1,1,0,0,1,0-2h817a1,1,0,0,1,0,2Z" transform="matrix(1, 0, 0, 1, -373.026306, -253.453949)" fill="#3f3d56"/>
  <path d="M 106.85 191.035 L -127.731 191.035 C -134.316 191.028 -139.652 185.55 -139.659 178.791 L -139.659 31.748 C -139.653 26.601 -135.589 22.428 -130.575 22.422 L 109.56 22.422 C 114.649 22.428 118.772 26.662 118.778 31.887 L 118.778 178.791 C 118.772 185.55 113.435 191.028 106.85 191.035 Z" fill="#fff" style="" transform="matrix(1, 0, 0, 1, 143.640366, 13.432008)"/>
  <path d="M 107.998 191.035 L -126.583 191.035 C -133.168 191.028 -138.504 185.55 -138.511 178.791 L -138.511 31.748 C -138.505 26.601 -134.441 22.428 -129.427 22.422 L 110.708 22.422 C 115.797 22.428 119.92 26.662 119.926 31.887 L 119.926 178.791 C 119.92 185.55 114.583 191.028 107.998 191.035 Z M -129.427 25.07 C -133.018 25.075 -135.928 28.061 -135.932 31.748 L -135.932 178.791 C -135.926 184.088 -131.744 188.382 -126.583 188.388 L 107.998 188.388 C 113.159 188.382 117.341 184.088 117.348 178.791 L 117.348 31.887 C 117.343 28.123 114.373 25.075 110.708 25.07 Z" fill="#3f3d56" style="" transform="matrix(1, 0, 0, 1, 143.640366, 13.432008)"/>
  <path d="M -32.561 153.805 L -102.85 153.805 C -106.406 153.8 -109.41 151.096 -109.881 147.476 C -109.924 147.161 -109.944 146.843 -109.942 146.525 L -109.942 66.932 C -109.937 62.913 -106.765 59.656 -102.85 59.651 L -32.561 59.651 C -28.646 59.656 -25.472 62.913 -25.467 66.932 L -25.467 146.525 C -25.472 150.545 -28.646 153.802 -32.561 153.805 Z M -102.85 63.623 C -104.629 63.626 -106.072 65.105 -106.074 66.932 L -106.074 146.525 C -106.075 146.662 -106.066 146.798 -106.048 146.933 C -105.845 148.588 -104.475 149.831 -102.85 149.835 L -32.561 149.835 C -30.781 149.833 -29.338 148.352 -29.336 146.525 L -29.336 66.932 C -29.338 65.105 -30.781 63.626 -32.561 63.623 Z" fill="#e6e6e6" style="" transform="matrix(1, 0, 0, 1, 143.640366, 13.432008)"/>
  <path d="M -68.725 74.202 C -73.301 72.018 -78.919 71.301 -83.575 73.332 C -88.231 75.362 -91.405 80.568 -89.899 85.174 C -89.217 87.261 -87.663 89.316 -88.268 91.424 C -88.734 93.049 -90.361 94.12 -91.958 94.883 C -93.554 95.644 -95.302 96.286 -96.458 97.57 C -97.612 98.857 -97.853 101.069 -96.41 102.067 C -95.934 102.394 -95.34 102.551 -94.88 102.896 C -94.074 103.568 -93.773 104.691 -94.129 105.691 C -94.513 106.673 -95.147 107.531 -95.967 108.173 C -97.604 109.624 -99.77 111.283 -99.261 113.342 C -98.878 114.459 -97.989 115.313 -96.878 115.631 C -95.741 115.967 -94.562 116.128 -93.379 116.105 L -45.044 117.668 C -43.449 117.79 -41.845 117.699 -40.273 117.394 C -38.728 117.105 -37.369 116.169 -36.524 114.81 C -35.599 113.051 -36.207 110.885 -37.349 109.242 C -38.492 107.599 -40.11 106.305 -41.447 104.796 C -42.784 103.288 -43.877 101.405 -43.642 99.456 C -43.454 97.895 -42.45 96.547 -41.731 95.13 C -41.011 93.711 -40.594 91.941 -41.526 90.636 C -42.839 88.798 -45.992 88.965 -47.485 87.251 C -48.613 85.96 -48.394 84.099 -48.507 82.433 C -48.776 78.423 -51.48 74.638 -55.328 72.879 C -59.298 71.13 -63.846 71.448 -67.548 73.734 Z" fill="#2f2e41" style="" transform="matrix(1, 0, 0, 1, 143.640366, 13.432008)"/>
  <circle cx="-81.989" cy="68.831" r="24.561" fill="#a0616a" style="" transform="matrix(0.644741, 0, 0, 0.661896, 129.565674, 68.900688)"/>
  <path d="M -46.146 138.278 C -46.179 132.472 -49.32 127.155 -54.321 124.444 C -54.522 124.332 -54.728 124.232 -54.934 124.134 C -56.716 123.266 -58.646 122.763 -60.615 122.651 L -75.689 121.784 C -77.818 121.66 -79.949 121.995 -81.943 122.77 C -82.429 122.956 -82.904 123.168 -83.368 123.405 C -84.824 124.142 -86.157 125.114 -87.313 126.285 C -90.394 129.406 -92.048 133.719 -91.866 138.158 L -91.595 144.718 L -89.699 149.768 L -47.551 149.768 C -47.029 149.118 -46.575 148.413 -46.199 147.664 C -44.749 144.717 -44.731 141.242 -46.146 138.278 Z" fill="#3f3d56" style="" transform="matrix(1, 0, 0, 1, 143.640366, 13.432008)"/>
  <path d="M -47.178 129.58 C -47.866 128.049 -48.944 126.736 -50.299 125.781 C -51.276 125.094 -52.372 124.604 -53.529 124.338 C -53.992 124.234 -54.461 124.166 -54.934 124.134 C -55.865 124.069 -56.8 124.151 -57.706 124.378 C -63.498 125.858 -66.408 132.516 -63.632 137.941 L -57.836 149.206 L -57.546 149.768 L -38.081 149.768 Z" fill="#3f3d56" style="" transform="matrix(1, 0, 0, 1, 143.640366, 13.432008)"/>
  <path d="M -79.035 123.709 C -79.946 123.234 -80.93 122.916 -81.943 122.77 C -82.696 122.66 -83.462 122.649 -84.218 122.736 C -88.17 123.196 -91.385 126.211 -92.187 130.209 L -96.114 149.768 L -80.756 149.768 L -77.887 148.563 L -74.315 134.492 C -73.245 130.207 -75.204 125.733 -79.035 123.709 Z" fill="#3f3d56" style="" transform="matrix(1, 0, 0, 1, 143.640366, 13.432008)"/>
  <path d="M -83.137 98.716 C -78.137 98.303 -73.985 93.175 -74.504 88.052 C -74.626 92.423 -71.537 96.194 -67.321 96.819 C -65.028 97.079 -62.512 96.366 -60.516 97.554 C -58.305 98.87 -57.597 102.066 -55.293 103.202 C -53.066 104.3 -50.239 102.803 -49.14 100.533 C -48.039 98.262 -48.31 95.535 -49.039 93.113 C -53.581 78.011 -72.155 73.316 -83.01 84.524 C -85.113 86.696 -86.782 89.463 -87.052 92.512 C -87.324 95.561 -85.946 98.87 -83.278 100.24 Z" fill="#2f2e41" style="" transform="matrix(1, 0, 0, 1, 143.640366, 13.432008)"/>
  <path d="M 83.904 127.926 L -1.203 127.926 C -5.173 127.926 -7.655 123.514 -5.67 119.983 C -4.748 118.346 -3.046 117.336 -1.203 117.336 L 83.904 117.336 C 87.874 117.336 90.356 121.749 88.371 125.278 C 87.449 126.917 85.747 127.926 83.904 127.926 Z" fill="#e6e6e6" style="" transform="matrix(1, 0, 0, 1, 143.640366, 13.432008)"/>
  <path d="M 45.219 105.422 L -1.203 105.422 C -5.173 105.422 -7.655 101.009 -5.67 97.479 C -4.748 95.84 -3.046 94.832 -1.203 94.832 L 45.219 94.832 C 49.189 94.832 51.671 99.244 49.686 102.773 C 48.765 104.413 47.061 105.422 45.219 105.422 Z" fill="#b542b9" style="" transform="matrix(1, 0, 0, 1, 143.640366, 13.432008)"/>
  <path d="M 70.127 144.092 C 57.035 144.117 48.879 158.682 55.445 170.309 C 58.482 175.686 64.073 179 70.127 179.011 L 70.127 179.011 C 83.218 178.986 91.376 164.421 84.808 152.794 C 81.773 147.418 76.181 144.104 70.127 144.092 Z" fill="#b542b9" style="" transform="matrix(1, 0, 0, 1, 143.640366, 13.432008)"/>
  <path id="f276b720-7c73-4755-84a7-b208d54eb1fc" data-name="Path 395" d="M 68.514 168.802 C 68.065 168.803 67.63 168.654 67.272 168.379 L 67.25 168.361 L 62.572 164.689 C 61.304 163.688 61.567 161.653 63.046 161.025 C 63.73 160.736 64.513 160.841 65.102 161.302 L 68.131 163.687 L 75.289 154.099 C 75.987 153.164 77.292 152.987 78.203 153.705 L 78.203 153.705 L 78.158 153.768 L 78.204 153.705 C 79.114 154.423 79.285 155.761 78.588 156.696 L 70.168 167.968 C 69.773 168.495 69.162 168.801 68.515 168.8 Z" fill="#fff" style="" transform="matrix(1, 0, 0, 1, 143.640366, 13.432008)"/>
  <circle cx="-82.083" cy="70.207" r="24.561" fill="#ffb8b8" style="" transform="matrix(0.644741, 0, 0, 0.661896, 129.565674, 68.900688)"/>
  <path d="M -87.007 94.187 C -82.006 93.774 -77.854 88.645 -78.374 83.523 C -78.495 87.894 -75.406 91.664 -71.191 92.29 C -68.897 92.55 -66.381 91.838 -64.385 93.026 C -62.174 94.341 -61.466 97.537 -59.162 98.673 C -56.937 99.772 -54.109 98.273 -53.009 96.003 C -51.909 93.733 -52.18 91.005 -52.908 88.583 C -57.451 73.483 -76.025 68.788 -86.879 79.995 C -88.982 82.167 -90.652 84.934 -90.923 87.983 C -91.193 91.033 -89.816 94.341 -87.148 95.711 Z" fill="#2f2e41" style="" transform="matrix(1, 0, 0, 1, 143.640366, 13.432008)"/>
</svg>