<?xml version="1.0" encoding="utf-8"?>
<svg viewBox="263.55 260.309 34.67 32.519" xmlns="http://www.w3.org/2000/svg">
  <g id="g-2" transform="matrix(0.104994, 0, 0, 0.104994, 232.963398, 263.4697)" style="">
    <path d="M 608.622 188.08 L 606.912 174.79 C 606.38 170.698 602.898 167.635 598.772 167.63 L 554.472 167.63 C 550.346 167.633 546.86 164.571 546.332 160.48 L 537.142 89.2 C 536.502 84.294 540.324 79.944 545.272 79.95 L 585.332 79.95 C 590.281 79.949 594.102 75.597 593.462 70.69 L 591.762 57.39 C 591.234 53.298 587.748 50.236 583.622 50.24 L 539.332 50.24 C 535.207 50.238 531.725 47.172 531.202 43.08 L 522.682 -22.92 C 522.154 -27.014 518.669 -30.079 514.542 -30.08 L 501.382 -30.08 C 496.432 -30.079 492.609 -25.73 493.242 -20.82 L 501.242 40.96 C 501.875 45.869 498.052 50.218 493.102 50.22 L 385.832 50.22 C 381.707 50.218 378.225 47.152 377.702 43.06 L 369.182 -22.94 C 368.659 -27.032 365.177 -30.098 361.052 -30.1 L 347.892 -30.1 C 342.942 -30.099 339.119 -25.75 339.752 -20.84 L 347.752 40.94 C 348.385 45.849 344.562 50.198 339.612 50.2 L 299.522 50.2 C 294.573 50.195 290.748 54.542 291.382 59.45 L 293.102 72.74 C 293.626 76.835 297.113 79.903 301.242 79.9 L 345.532 79.9 C 349.658 79.896 353.144 82.958 353.672 87.05 L 362.872 158.33 C 363.506 163.238 359.681 167.584 354.732 167.58 L 314.672 167.58 C 309.722 167.581 305.899 171.93 306.532 176.84 L 308.252 190.13 C 308.775 194.222 312.257 197.288 316.382 197.29 L 360.682 197.29 C 364.808 197.286 368.294 200.348 368.822 204.44 L 377.332 270.44 C 377.86 274.533 381.345 277.598 385.472 277.6 L 398.632 277.6 C 403.582 277.598 407.405 273.249 406.772 268.34 L 398.772 206.56 C 398.19 201.674 402.012 197.379 406.932 197.39 L 514.172 197.39 C 518.289 197.373 521.78 200.41 522.332 204.49 L 530.842 270.49 C 531.37 274.583 534.855 277.648 538.982 277.65 L 552.142 277.65 C 557.091 277.649 560.912 273.297 560.272 268.39 L 552.272 206.61 C 551.638 201.702 555.463 197.355 560.412 197.36 L 600.472 197.36 C 605.435 197.366 609.269 193.001 608.622 188.08 Z M 392.842 160.48 L 383.652 89.2 C 383.019 84.296 386.837 79.951 391.782 79.95 L 499.022 79.95 C 503.148 79.946 506.634 83.008 507.162 87.1 L 516.332 158.39 C 516.966 163.298 513.141 167.644 508.192 167.64 L 400.982 167.64 C 396.855 167.638 393.37 164.573 392.842 160.48 Z" style="fill: rgb(162, 214, 112);"/>
    <path d="M 615.66 188.236 L 613.95 174.946 C 613.418 170.854 609.936 167.791 605.81 167.786 L 561.51 167.786 C 557.385 167.789 553.899 164.727 553.37 160.636 L 544.18 89.356 C 543.54 84.449 547.363 80.1 552.31 80.106 L 592.37 80.106 C 597.32 80.105 601.14 75.753 600.5 70.846 L 598.8 57.546 C 598.272 53.454 594.786 50.392 590.66 50.396 L 546.37 50.396 C 542.245 50.394 538.764 47.327 538.24 43.236 L 529.72 -22.764 C 529.192 -26.858 525.708 -29.923 521.58 -29.924 L 508.42 -29.924 C 503.47 -29.923 499.647 -25.574 500.28 -20.664 L 508.28 41.116 C 508.913 46.025 505.09 50.374 500.14 50.376 L 392.87 50.376 C 388.745 50.374 385.264 47.307 384.74 43.216 L 376.22 -22.784 C 375.697 -26.876 372.216 -29.943 368.09 -29.944 L 354.93 -29.944 C 349.98 -29.943 346.157 -25.594 346.79 -20.684 L 354.79 41.096 C 355.423 46.005 351.6 50.354 346.65 50.356 L 306.56 50.356 C 301.612 50.351 297.787 54.698 298.42 59.606 L 300.14 72.896 C 300.664 76.991 304.151 80.059 308.28 80.056 L 352.57 80.056 C 356.696 80.052 360.182 83.114 360.71 87.206 L 369.91 158.486 C 370.544 163.393 366.719 167.74 361.77 167.736 L 321.71 167.736 C 316.76 167.737 312.937 172.086 313.57 176.996 L 315.29 190.286 C 315.814 194.377 319.295 197.444 323.42 197.446 L 367.72 197.446 C 371.846 197.442 375.332 200.504 375.86 204.596 L 384.37 270.596 C 384.898 274.689 388.383 277.754 392.51 277.756 L 405.67 277.756 C 410.62 277.754 414.443 273.405 413.81 268.496 L 405.81 206.716 C 405.228 201.83 409.05 197.535 413.97 197.546 L 521.21 197.546 C 525.327 197.528 528.818 200.566 529.37 204.646 L 537.88 270.646 C 538.408 274.739 541.893 277.804 546.02 277.806 L 559.18 277.806 C 564.13 277.805 567.95 273.453 567.31 268.546 L 559.31 206.766 C 558.677 201.858 562.502 197.511 567.45 197.516 L 607.51 197.516 C 612.474 197.522 616.307 193.156 615.66 188.236 Z M 399.88 160.636 L 390.69 89.356 C 390.057 84.452 393.876 80.107 398.82 80.106 L 506.06 80.106 C 510.186 80.102 513.672 83.164 514.2 87.256 L 523.37 158.546 C 524.004 163.453 520.179 167.8 515.23 167.796 L 408.02 167.796 C 403.893 167.794 400.408 164.729 399.88 160.636 Z" style="opacity: 0.4; fill: rgb(162, 214, 112);"/>
    <path d="M 621.449 190.019 L 619.729 176.729 C 619.201 172.635 615.716 169.57 611.589 169.569 L 567.289 169.569 C 563.167 169.568 559.687 166.507 559.159 162.419 L 549.959 91.139 C 549.332 86.233 553.153 81.891 558.099 81.889 L 598.159 81.889 C 603.109 81.887 606.932 77.538 606.299 72.629 L 604.529 59.329 C 604.005 55.239 600.522 52.176 596.399 52.179 L 552.099 52.179 C 547.971 52.178 544.487 49.112 543.959 45.019 L 535.449 -20.981 C 534.921 -25.075 531.436 -28.14 527.309 -28.141 L 514.149 -28.141 C 509.199 -28.14 505.376 -23.791 506.009 -18.881 L 514.009 42.899 C 514.642 47.808 510.819 52.157 505.869 52.159 L 398.609 52.159 C 394.484 52.17 390.991 49.118 390.449 45.029 L 381.939 -20.971 C 381.411 -25.065 377.926 -28.13 373.799 -28.131 L 360.659 -28.131 C 355.71 -28.13 351.889 -23.779 352.529 -18.871 L 360.529 42.909 C 361.162 47.818 357.339 52.167 352.389 52.169 L 312.299 52.169 C 307.35 52.164 303.525 56.511 304.159 61.419 L 305.869 74.709 C 306.397 78.802 309.881 81.868 314.009 81.869 L 358.309 81.869 C 362.434 81.865 365.921 84.927 366.449 89.019 L 375.639 160.329 C 376.279 165.235 372.457 169.584 367.509 169.579 L 327.449 169.579 C 322.5 169.58 318.679 173.931 319.319 178.839 L 321.029 192.129 C 321.557 196.222 325.041 199.288 329.169 199.289 L 373.449 199.289 C 377.572 199.286 381.055 202.349 381.579 206.439 L 390.099 272.439 C 390.627 276.532 394.111 279.598 398.239 279.599 L 411.449 279.599 C 416.399 279.597 420.222 275.248 419.589 270.339 L 411.589 208.559 C 410.955 203.651 414.78 199.304 419.729 199.309 L 526.949 199.309 C 531.071 199.31 534.551 202.371 535.079 206.459 L 543.599 272.459 C 544.122 276.551 547.604 279.617 551.729 279.619 L 564.889 279.619 C 569.839 279.617 573.662 275.268 573.029 270.359 L 565.029 208.579 C 564.396 203.675 568.214 199.33 573.159 199.329 L 613.229 199.329 C 618.234 199.38 622.12 194.979 621.449 190.019 Z M 405.669 162.419 L 396.449 91.139 C 395.822 86.233 399.643 81.891 404.589 81.889 L 511.799 81.889 C 515.923 81.89 519.406 84.949 519.939 89.039 L 529.129 160.329 C 529.762 165.233 525.943 169.577 520.999 169.579 L 413.759 169.579 C 409.63 169.582 406.142 166.515 405.619 162.419 Z" style="fill: rgb(162, 214, 112);"/>
    <path d="M 621.056 188.981 L 619.336 175.691 C 618.808 171.598 615.324 168.532 611.196 168.531 L 566.896 168.531 C 562.774 168.53 559.294 165.469 558.766 161.381 L 549.566 90.101 C 548.94 85.195 552.761 80.853 557.706 80.851 L 597.766 80.851 C 602.716 80.85 606.539 76.501 605.906 71.591 L 604.136 58.291 C 603.613 54.201 600.13 51.138 596.006 51.141 L 551.706 51.141 C 547.579 51.14 544.094 48.075 543.566 43.981 L 535.056 -22.019 C 534.528 -26.112 531.044 -29.178 526.916 -29.179 L 513.756 -29.179 C 508.806 -29.177 504.983 -24.828 505.616 -19.919 L 513.616 41.861 C 514.249 46.771 510.426 51.12 505.476 51.121 L 398.216 51.121 C 394.091 51.132 390.599 48.08 390.056 43.991 L 381.546 -22.009 C 381.018 -26.102 377.534 -29.168 373.406 -29.169 L 360.266 -29.169 C 355.317 -29.168 351.496 -24.816 352.136 -19.909 L 360.136 41.871 C 360.769 46.781 356.946 51.13 351.996 51.131 L 311.906 51.131 C 306.958 51.127 303.133 55.473 303.766 60.381 L 305.476 73.671 C 306.004 77.765 309.489 80.83 313.616 80.831 L 357.916 80.831 C 362.042 80.827 365.528 83.889 366.056 87.981 L 375.246 159.291 C 375.887 164.197 372.064 168.547 367.116 168.541 L 327.056 168.541 C 322.107 168.542 318.286 172.894 318.926 177.801 L 320.636 191.091 C 321.164 195.185 324.649 198.25 328.776 198.251 L 373.056 198.251 C 377.18 198.248 380.663 201.311 381.186 205.401 L 389.706 271.401 C 390.234 275.495 393.719 278.56 397.846 278.561 L 411.056 278.561 C 416.006 278.56 419.829 274.211 419.196 269.301 L 411.196 207.521 C 410.563 202.613 414.388 198.267 419.336 198.271 L 526.556 198.271 C 530.678 198.272 534.158 201.333 534.686 205.421 L 543.206 271.421 C 543.729 275.513 547.211 278.579 551.336 278.581 L 564.496 278.581 C 569.446 278.58 573.269 274.231 572.636 269.321 L 564.636 207.541 C 564.003 202.637 567.822 198.293 572.766 198.291 L 612.836 198.291 C 617.841 198.342 621.727 193.941 621.056 188.981 Z M 405.276 161.381 L 396.056 90.101 C 395.43 85.195 399.251 80.853 404.196 80.851 L 511.406 80.851 C 515.53 80.852 519.014 83.912 519.546 88.001 L 528.736 159.291 C 529.369 164.195 525.551 168.54 520.606 168.541 L 413.366 168.541 C 409.237 168.544 405.75 165.477 405.226 161.381 Z" style="opacity: 0.3; fill: rgb(76, 119, 52); stroke: rgb(139, 159, 73);"/>
    <path d="M 621.056 188.981 L 619.336 175.691 C 618.808 171.598 615.324 168.532 611.196 168.531 L 566.896 168.531 C 562.774 168.53 559.294 165.469 558.766 161.381 L 549.566 90.101 C 548.94 85.195 552.761 80.853 557.706 80.851 L 597.766 80.851 C 602.716 80.85 606.539 76.501 605.906 71.591 L 604.136 58.291 C 603.613 54.201 600.13 51.138 596.006 51.141 L 551.706 51.141 C 547.579 51.14 544.094 48.075 543.566 43.981 L 535.056 -22.019 C 534.528 -26.112 531.044 -29.178 526.916 -29.179 L 513.756 -29.179 C 508.806 -29.177 504.983 -24.828 505.616 -19.919 L 513.616 41.861 C 514.249 46.771 510.426 51.12 505.476 51.121 L 398.216 51.121 C 394.091 51.132 390.599 48.08 390.056 43.991 L 381.546 -22.009 C 381.018 -26.102 377.534 -29.168 373.406 -29.169 L 360.266 -29.169 C 355.317 -29.168 351.496 -24.816 352.136 -19.909 L 360.136 41.871 C 360.769 46.781 356.946 51.13 351.996 51.131 L 311.906 51.131 C 306.958 51.127 303.133 55.473 303.766 60.381 L 305.476 73.671 C 306.004 77.765 309.489 80.83 313.616 80.831 L 357.916 80.831 C 362.042 80.827 365.528 83.889 366.056 87.981 L 375.246 159.291 C 375.887 164.197 372.064 168.547 367.116 168.541 L 327.056 168.541 C 322.107 168.542 318.286 172.894 318.926 177.801 L 320.636 191.091 C 321.164 195.185 324.649 198.25 328.776 198.251 L 373.056 198.251 C 377.18 198.248 380.663 201.311 381.186 205.401 L 389.706 271.401 C 390.234 275.495 393.719 278.56 397.846 278.561 L 411.056 278.561 C 416.006 278.56 419.829 274.211 419.196 269.301 L 411.196 207.521 C 410.563 202.613 414.388 198.267 419.336 198.271 L 526.556 198.271 C 530.678 198.272 534.158 201.333 534.686 205.421 L 543.206 271.421 C 543.729 275.513 547.211 278.579 551.336 278.581 L 564.496 278.581 C 569.446 278.58 573.269 274.231 572.636 269.321 L 564.636 207.541 C 564.003 202.637 567.822 198.293 572.766 198.291 L 612.836 198.291 C 617.841 198.342 621.727 193.941 621.056 188.981 Z M 405.276 161.381 L 396.056 90.101 C 395.43 85.195 399.251 80.853 404.196 80.851 L 511.406 80.851 C 515.53 80.852 519.014 83.912 519.546 88.001 L 528.736 159.291 C 529.369 164.195 525.551 168.54 520.606 168.541 L 413.366 168.541 C 409.237 168.544 405.75 165.477 405.226 161.381 Z" style="opacity: 0.3; fill: rgb(76, 119, 52); stroke: rgb(139, 159, 73);" transform="matrix(1, 0, 0, 1, -0.000012, 0.000002)"/>
  </g>
</svg>