<?xml version="1.0" encoding="utf-8"?>
<svg viewBox="263.218 202.188 34.97 32.41" xmlns="http://www.w3.org/2000/svg">
  <g id="g-1" transform="matrix(0.105301, 0, 0, 0.105301, 254.374989, 190.76224)" style="">
    <path d="M401.29,326.69l-1.71-13.29a8.22,8.22,0,0,0-8.14-7.16h-44.3a8.2,8.2,0,0,1-8.14-7.15l-9.19-71.28a8.19,8.19,0,0,1,8.13-9.25H378a8.2,8.2,0,0,0,8.13-9.26L384.43,196a8.2,8.2,0,0,0-8.14-7.15H332a8.2,8.2,0,0,1-8.13-7.16l-8.52-66a8.21,8.21,0,0,0-8.14-7.16H294.05a8.21,8.21,0,0,0-8.14,9.26l8,61.78a8.21,8.21,0,0,1-8.14,9.26H178.5a8.2,8.2,0,0,1-8.13-7.16l-8.52-66a8.2,8.2,0,0,0-8.13-7.16H140.56a8.21,8.21,0,0,0-8.14,9.26l8,61.78a8.21,8.21,0,0,1-8.14,9.26H92.19a8.2,8.2,0,0,0-8.14,9.25l1.72,13.29a8.2,8.2,0,0,0,8.14,7.16H138.2a8.2,8.2,0,0,1,8.14,7.15l9.2,71.28a8.2,8.2,0,0,1-8.14,9.25H107.34a8.21,8.21,0,0,0-8.14,9.26l1.72,13.29a8.2,8.2,0,0,0,8.13,7.16h44.3a8.2,8.2,0,0,1,8.14,7.15l8.51,66a8.21,8.21,0,0,0,8.14,7.16H191.3a8.21,8.21,0,0,0,8.14-9.26l-8-61.78A8.2,8.2,0,0,1,199.6,336H306.84A8.2,8.2,0,0,1,315,343.1l8.51,66a8.21,8.21,0,0,0,8.14,7.16h13.16a8.2,8.2,0,0,0,8.13-9.26l-8-61.78a8.2,8.2,0,0,1,8.14-9.25h40.06A8.21,8.21,0,0,0,401.29,326.69Zm-215.78-27.6-9.19-71.28a8.2,8.2,0,0,1,8.13-9.25H291.69a8.2,8.2,0,0,1,8.14,7.15L309,297a8.2,8.2,0,0,1-8.14,9.25H193.65A8.21,8.21,0,0,1,185.51,299.09Z" style="fill:#56068C"/>
    <path d="M401.29,326.69l-1.71-13.29a8.22,8.22,0,0,0-8.14-7.16h-44.3a8.2,8.2,0,0,1-8.14-7.15l-9.19-71.28a8.19,8.19,0,0,1,8.13-9.25H378a8.2,8.2,0,0,0,8.13-9.26L384.43,196a8.2,8.2,0,0,0-8.14-7.15H332a8.2,8.2,0,0,1-8.13-7.16l-8.52-66a8.21,8.21,0,0,0-8.14-7.16H294.05a8.21,8.21,0,0,0-8.14,9.26l8,61.78a8.21,8.21,0,0,1-8.14,9.26H178.5a8.2,8.2,0,0,1-8.13-7.16l-8.52-66a8.2,8.2,0,0,0-8.13-7.16H140.56a8.21,8.21,0,0,0-8.14,9.26l8,61.78a8.21,8.21,0,0,1-8.14,9.26H92.19a8.2,8.2,0,0,0-8.14,9.25l1.72,13.29a8.2,8.2,0,0,0,8.14,7.16H138.2a8.2,8.2,0,0,1,8.14,7.15l9.2,71.28a8.2,8.2,0,0,1-8.14,9.25H107.34a8.21,8.21,0,0,0-8.14,9.26l1.72,13.29a8.2,8.2,0,0,0,8.13,7.16h44.3a8.2,8.2,0,0,1,8.14,7.15l8.51,66a8.21,8.21,0,0,0,8.14,7.16H191.3a8.21,8.21,0,0,0,8.14-9.26l-8-61.78A8.2,8.2,0,0,1,199.6,336H306.84A8.2,8.2,0,0,1,315,343.1l8.51,66a8.21,8.21,0,0,0,8.14,7.16h13.16a8.2,8.2,0,0,0,8.13-9.26l-8-61.78a8.2,8.2,0,0,1,8.14-9.25h40.06A8.21,8.21,0,0,0,401.29,326.69Zm-215.78-27.6-9.19-71.28a8.2,8.2,0,0,1,8.13-9.25H291.69a8.2,8.2,0,0,1,8.14,7.15L309,297a8.2,8.2,0,0,1-8.14,9.25H193.65A8.21,8.21,0,0,1,185.51,299.09Z" style="opacity: 0.4; fill: rgb(236, 67, 95);"/>
    <path d="M416,326.69l-1.72-13.29a8.21,8.21,0,0,0-8.14-7.16h-44.3a8.2,8.2,0,0,1-8.13-7.15l-9.2-71.28a8.21,8.21,0,0,1,8.14-9.25h40.06a8.21,8.21,0,0,0,8.14-9.26L399.08,196a8.19,8.19,0,0,0-8.13-7.15h-44.3a8.21,8.21,0,0,1-8.14-7.16l-8.51-66a8.21,8.21,0,0,0-8.14-7.16H308.7a8.21,8.21,0,0,0-8.14,9.26l8,61.78a8.21,8.21,0,0,1-8.14,9.26H193.16A8.21,8.21,0,0,1,185,181.7l-8.51-66a8.21,8.21,0,0,0-8.14-7.16H155.21a8.2,8.2,0,0,0-8.13,9.26l8,61.78a8.21,8.21,0,0,1-8.14,9.26H106.85a8.2,8.2,0,0,0-8.14,9.25l1.71,13.29a8.21,8.21,0,0,0,8.14,7.16h44.3a8.2,8.2,0,0,1,8.14,7.15L170.19,297a8.19,8.19,0,0,1-8.13,9.25H122a8.2,8.2,0,0,0-8.13,9.26l1.71,13.29a8.21,8.21,0,0,0,8.14,7.16H168a8.19,8.19,0,0,1,8.13,7.15l8.52,66a8.21,8.21,0,0,0,8.14,7.16H206a8.21,8.21,0,0,0,8.14-9.26l-8-61.78a8.2,8.2,0,0,1,8.14-9.25H321.5a8.2,8.2,0,0,1,8.13,7.15l8.52,66a8.2,8.2,0,0,0,8.13,7.16h13.16a8.21,8.21,0,0,0,8.14-9.26l-8-61.78a8.2,8.2,0,0,1,8.13-9.25h40.07A8.21,8.21,0,0,0,416,326.69Zm-215.78-27.6L191,227.81a8.21,8.21,0,0,1,8.14-9.25H306.35a8.21,8.21,0,0,1,8.14,7.15L323.68,297a8.2,8.2,0,0,1-8.13,9.25H208.31A8.2,8.2,0,0,1,200.17,299.09Z" style="fill:#56068C"/>
    <path d="M416,326.69l-1.72-13.29a8.21,8.21,0,0,0-8.14-7.16h-44.3a8.2,8.2,0,0,1-8.13-7.15l-9.2-71.28a8.21,8.21,0,0,1,8.14-9.25h40.06a8.21,8.21,0,0,0,8.14-9.26L399.08,196a8.19,8.19,0,0,0-8.13-7.15h-44.3a8.21,8.21,0,0,1-8.14-7.16l-8.51-66a8.21,8.21,0,0,0-8.14-7.16H308.7a8.21,8.21,0,0,0-8.14,9.26l8,61.78a8.21,8.21,0,0,1-8.14,9.26H193.16A8.21,8.21,0,0,1,185,181.7l-8.51-66a8.21,8.21,0,0,0-8.14-7.16H155.21a8.2,8.2,0,0,0-8.13,9.26l8,61.78a8.21,8.21,0,0,1-8.14,9.26H106.85a8.2,8.2,0,0,0-8.14,9.25l1.71,13.29a8.21,8.21,0,0,0,8.14,7.16h44.3a8.2,8.2,0,0,1,8.14,7.15L170.19,297a8.19,8.19,0,0,1-8.13,9.25H122a8.2,8.2,0,0,0-8.13,9.26l1.71,13.29a8.21,8.21,0,0,0,8.14,7.16H168a8.19,8.19,0,0,1,8.13,7.15l8.52,66a8.21,8.21,0,0,0,8.14,7.16H206a8.21,8.21,0,0,0,8.14-9.26l-8-61.78a8.2,8.2,0,0,1,8.14-9.25H321.5a8.2,8.2,0,0,1,8.13,7.15l8.52,66a8.2,8.2,0,0,0,8.13,7.16h13.16a8.21,8.21,0,0,0,8.14-9.26l-8-61.78a8.2,8.2,0,0,1,8.13-9.25h40.07A8.21,8.21,0,0,0,416,326.69Zm-215.78-27.6L191,227.81a8.21,8.21,0,0,1,8.14-9.25H306.35a8.21,8.21,0,0,1,8.14,7.15L323.68,297a8.2,8.2,0,0,1-8.13,9.25H208.31A8.2,8.2,0,0,1,200.17,299.09Z" style="opacity: 0.3; fill: rgb(236, 67, 94);"/>
    <path d="M359.44,413.36H346.28a5.33,5.33,0,0,1-5.28-4.65l-8.52-66a11.1,11.1,0,0,0-11-9.66H214.26a11.08,11.08,0,0,0-11,12.5l8,61.78a5.32,5.32,0,0,1-5.29,6H192.8a5.33,5.33,0,0,1-5.29-4.65l-8.51-66a11.12,11.12,0,0,0-11-9.66h-44.3a5.35,5.35,0,0,1-5.29-4.65l-1.71-13.29a5.32,5.32,0,0,1,5.28-6h40.07a11.09,11.09,0,0,0,11-12.5l-9.2-71.27a11.11,11.11,0,0,0-11-9.67h-44.3a5.33,5.33,0,0,1-5.28-4.64l-1.72-13.3a5.32,5.32,0,0,1,5.29-6h40.06a11.08,11.08,0,0,0,11-12.5l-8-61.78a5.32,5.32,0,0,1,5.28-6h13.16a5.35,5.35,0,0,1,5.29,4.65l8.51,66a11.11,11.11,0,0,0,11,9.66H300.4a11.08,11.08,0,0,0,11-12.5l-8-61.78a5.32,5.32,0,0,1,5.28-6h13.16a5.36,5.36,0,0,1,5.29,4.65l8.51,66a11.1,11.1,0,0,0,11,9.66H391a5.34,5.34,0,0,1,5.28,4.65L398,209.67a5.32,5.32,0,0,1-5.29,6H352.6a11.09,11.09,0,0,0-11,12.5l9.2,71.28a11.1,11.1,0,0,0,11,9.66h44.3a5.34,5.34,0,0,1,5.29,4.65l1.71,13.29a5.32,5.32,0,0,1-5.28,6H367.75a11.06,11.06,0,0,0-11,12.5l8,61.78a5.34,5.34,0,0,1-5.29,6ZM214.26,332.82H321.5a11.35,11.35,0,0,1,11.23,9.88l8.52,66a5.08,5.08,0,0,0,5,4.43h13.16a5.07,5.07,0,0,0,5-5.73l-8-61.78a11.33,11.33,0,0,1,11.24-12.78h40.06a5.07,5.07,0,0,0,5-5.73l-1.72-13.29a5.08,5.08,0,0,0-5-4.43h-44.3a11.36,11.36,0,0,1-11.23-9.88l-9.2-71.28a11.33,11.33,0,0,1,11.24-12.78h40.06a5.07,5.07,0,0,0,5-5.73L396,196.41a5.1,5.1,0,0,0-5-4.43h-44.3a11.36,11.36,0,0,1-11.24-9.88l-8.51-66a5.09,5.09,0,0,0-5-4.43H308.7a5.08,5.08,0,0,0-5,5.73l8,61.78A11.33,11.33,0,0,1,300.4,192H193.16a11.36,11.36,0,0,1-11.24-9.88l-8.51-66a5.09,5.09,0,0,0-5-4.43H155.21a5.07,5.07,0,0,0-5,5.73l8,61.78A11.33,11.33,0,0,1,146.91,192H106.85a5.08,5.08,0,0,0-5,5.73L103.52,211a5.09,5.09,0,0,0,5,4.43h44.3a11.36,11.36,0,0,1,11.24,9.88l9.19,71.28a11.32,11.32,0,0,1-11.23,12.78H122a5.07,5.07,0,0,0-5,5.73l1.71,13.29a5.09,5.09,0,0,0,5,4.43H168a11.35,11.35,0,0,1,11.23,9.88l8.52,66a5.08,5.08,0,0,0,5,4.43H206a5.07,5.07,0,0,0,5-5.73l-8-61.78a11.33,11.33,0,0,1,11.24-12.78Zm101.29-23.45H208.31a11.36,11.36,0,0,1-11.24-9.88l-9.2-71.28a11.33,11.33,0,0,1,11.24-12.78H306.35a11.36,11.36,0,0,1,11.24,9.88l9.19,71.28a11.33,11.33,0,0,1-11.23,12.78ZM199.11,215.68a11.09,11.09,0,0,0-11,12.5l9.2,71.28a11.11,11.11,0,0,0,11,9.66H315.55a11.08,11.08,0,0,0,11-12.5l-9.19-71.27a11.11,11.11,0,0,0-11-9.67Z" style="fill:#56068C"/>
  </g>
</svg>